<svg width="81" height="56" viewBox="0 0 81 56" fill="none" xmlns="http://www.w3.org/2000/svg">
<g id="Logo">
<path id="@2024" d="M76.95 54.35V51.5825H78.3525C78.465 51.5825 78.5875 51.615 78.72 51.68C78.8525 51.7425 78.965 51.84 79.0575 51.9725C79.1525 52.1025 79.2 52.2675 79.2 52.4675C79.2 52.67 79.1512 52.8425 79.0537 52.985C78.9562 53.125 78.8375 53.2312 78.6975 53.3037C78.56 53.3762 78.43 53.4125 78.3075 53.4125H77.295V52.9625H78.12C78.2025 52.9625 78.2912 52.9212 78.3862 52.8387C78.4837 52.7562 78.5325 52.6325 78.5325 52.4675C78.5325 52.2975 78.4837 52.1825 78.3862 52.1225C78.2912 52.0625 78.2075 52.0325 78.135 52.0325H77.5575V54.35H76.95ZM78.6225 53.045L79.3125 54.35H78.645L77.97 53.045H78.6225ZM78 56C77.585 56 77.1962 55.9225 76.8337 55.7675C76.4712 55.6125 76.1525 55.3975 75.8775 55.1225C75.6025 54.8475 75.3875 54.5287 75.2325 54.1662C75.0775 53.8037 75 53.415 75 53C75 52.585 75.0775 52.1962 75.2325 51.8337C75.3875 51.4712 75.6025 51.1525 75.8775 50.8775C76.1525 50.6025 76.4712 50.3875 76.8337 50.2325C77.1962 50.0775 77.585 50 78 50C78.415 50 78.8037 50.0775 79.1662 50.2325C79.5287 50.3875 79.8475 50.6025 80.1225 50.8775C80.3975 51.1525 80.6125 51.4712 80.7675 51.8337C80.9225 52.1962 81 52.585 81 53C81 53.415 80.9225 53.8037 80.7675 54.1662C80.6125 54.5287 80.3975 54.8475 80.1225 55.1225C79.8475 55.3975 79.5287 55.6125 79.1662 55.7675C78.8037 55.9225 78.415 56 78 56ZM78 55.28C78.42 55.28 78.8025 55.1775 79.1475 54.9725C79.4925 54.7675 79.7675 54.4925 79.9725 54.1475C80.1775 53.8025 80.28 53.42 80.28 53C80.28 52.58 80.1775 52.1975 79.9725 51.8525C79.7675 51.5075 79.4925 51.2325 79.1475 51.0275C78.8025 50.8225 78.42 50.72 78 50.72C77.58 50.72 77.1975 50.8225 76.8525 51.0275C76.5075 51.2325 76.2325 51.5075 76.0275 51.8525C75.8225 52.1975 75.72 52.58 75.72 53C75.72 53.42 75.8225 53.8025 76.0275 54.1475C76.2325 54.4925 76.5075 54.7675 76.8525 54.9725C77.1975 55.1775 77.58 55.28 78 55.28Z" fill="#8D8D8D"/>
<g id="Group 6">
<path id="Rectangle 11" d="M0 0H34C40.6274 0 46 5.37258 46 12V44C46 50.6274 40.6274 56 34 56H0V0Z" fill="white"/>
<path id="Rectangle 12" d="M75 0H67.5475C61.5894 0 56.5335 4.37162 55.6732 10.2673L51.0039 42.2673C49.9474 49.5077 55.561 56 62.8781 56H67.9429L75 0Z" fill="white"/>
</g>
</g>
</svg>
