<svg width="162" height="112" viewBox="0 0 162 112" fill="none" xmlns="http://www.w3.org/2000/svg">
<path d="M0 0H68C81.2548 0 92 10.7452 92 24V88C92 101.255 81.2548 112 68 112H0V0Z" fill="white"/>
<path d="M150 0H135.095C123.179 0 113.067 8.74324 111.346 20.5347L102.008 84.5347C99.8947 99.0155 111.122 112 125.756 112H135.886L150 0Z" fill="white"/>
<path d="M153.9 108.7V103.165H156.705C156.93 103.165 157.175 103.23 157.44 103.36C157.705 103.485 157.93 103.68 158.115 103.945C158.305 104.205 158.4 104.535 158.4 104.935C158.4 105.34 158.303 105.685 158.108 105.97C157.913 106.25 157.675 106.463 157.395 106.608C157.12 106.753 156.86 106.825 156.615 106.825H154.59V105.925H156.24C156.405 105.925 156.583 105.843 156.773 105.678C156.968 105.513 157.065 105.265 157.065 104.935C157.065 104.595 156.968 104.365 156.773 104.245C156.583 104.125 156.415 104.065 156.27 104.065H155.115V108.7H153.9ZM157.245 106.09L158.625 108.7H157.29L155.94 106.09H157.245ZM156 112C155.17 112 154.393 111.845 153.668 111.535C152.943 111.225 152.305 110.795 151.755 110.245C151.205 109.695 150.775 109.058 150.465 108.333C150.155 107.608 150 106.83 150 106C150 105.17 150.155 104.393 150.465 103.668C150.775 102.943 151.205 102.305 151.755 101.755C152.305 101.205 152.943 100.775 153.668 100.465C154.393 100.155 155.17 100 156 100C156.83 100 157.608 100.155 158.333 100.465C159.058 100.775 159.695 101.205 160.245 101.755C160.795 102.305 161.225 102.943 161.535 103.668C161.845 104.393 162 105.17 162 106C162 106.83 161.845 107.608 161.535 108.333C161.225 109.058 160.795 109.695 160.245 110.245C159.695 110.795 159.058 111.225 158.333 111.535C157.608 111.845 156.83 112 156 112ZM156 110.56C156.84 110.56 157.605 110.355 158.295 109.945C158.985 109.535 159.535 108.985 159.945 108.295C160.355 107.605 160.56 106.84 160.56 106C160.56 105.16 160.355 104.395 159.945 103.705C159.535 103.015 158.985 102.465 158.295 102.055C157.605 101.645 156.84 101.44 156 101.44C155.16 101.44 154.395 101.645 153.705 102.055C153.015 102.465 152.465 103.015 152.055 103.705C151.645 104.395 151.44 105.16 151.44 106C151.44 106.84 151.645 107.605 152.055 108.295C152.465 108.985 153.015 109.535 153.705 109.945C154.395 110.355 155.16 110.56 156 110.56Z" fill="#8D8D8D"/>
</svg>
